<svg width="13" height="14" viewBox="0 0 13 14" fill="none" xmlns="http://www.w3.org/2000/svg">
<path d="M11.6844 12.1689H0.99034C0.633065 12.1689 0.340637 12.4611 0.340637 12.8186C0.340637 13.1759 0.633065 13.4683 0.99034 13.4683H11.6909C12.0482 13.4683 12.3406 13.1759 12.3406 12.8186C12.3406 12.4611 12.0482 12.1689 11.6844 12.1689Z" fill="#FF906D"/>
<path d="M5.86311 9.83645C5.98664 9.96634 6.15553 10.0443 6.33735 10.0443C6.51938 10.0443 6.68827 9.96634 6.8116 9.83645L10.6189 5.74985C10.8658 5.48984 10.8463 5.07408 10.5865 4.83378C10.3265 4.58691 9.91072 4.6062 9.67041 4.8662L6.98706 7.74431V0.649702C6.98706 0.292222 6.69463 0 6.33735 0C5.98008 0 5.68765 0.292222 5.68765 0.649702V7.74431L3.01086 4.8662C2.76399 4.6064 2.35459 4.58691 2.09479 4.83378C1.83499 5.08065 1.8155 5.49005 2.06237 5.74985L5.86311 9.83645Z" fill="#FF906D"/>
</svg>
