<svg width="16" height="13" viewBox="0 0 16 13" fill="none" xmlns="http://www.w3.org/2000/svg">
<path d="M16 6.61555C16 5.69111 15.1667 5.2 14 5.2H10.6333C10.8667 4.42 11 3.66889 11 3.03333C11 0.52 10.2 0 9.5 0C9.03333 0 8.7 0.0288889 8.23333 0.288889C8.1 0.346667 8.03333 0.462222 8 0.577778L7.5 2.91778C6.96667 4.16 5.6 5.22889 4.5 5.95111V12.1333C4.86667 12.1333 5.33333 12.3067 5.76667 12.5089C6.3 12.74 6.86667 12.9711 7.5 12.9711H12.2667C13.2667 12.9711 14 12.2778 14 11.6711C14 11.5556 14 11.44 13.9667 11.3533C14.6 11.1511 15 10.6889 15 10.1689C15 9.90889 14.9333 9.67777 14.8333 9.50444C15.2 9.27333 15.6 8.89778 15.6 8.43556C15.6 8.20445 15.4667 7.91556 15.2667 7.71334C15.7 7.42445 16 7.02 16 6.61555ZM14.9667 6.61555C14.9667 7.16444 14.3 7.22222 14.2 7.48222C14.1 7.77111 14.6 7.88667 14.6 8.40667C14.6 8.95556 13.8333 8.95555 13.7333 9.21555C13.6 9.53333 13.9667 9.64889 13.9667 10.1689C13.9667 10.1978 13.9667 10.2267 13.9667 10.2556C13.8667 10.6889 13.1 10.7178 12.9667 10.8911C12.8333 11.0933 13 11.2089 13 11.6711C13 11.9311 12.6667 12.1044 12.2667 12.1044H7.5C7.13333 12.1044 6.66667 11.9311 6.23333 11.7289C5.83333 11.5556 5.43333 11.3822 5 11.2956V6.70222C6.23333 5.89334 7.83333 4.65111 8.46667 3.14889C8.46667 3.12 8.46667 3.09111 8.5 3.09111L8.96667 0.924448C9.13333 0.86667 9.26667 0.866667 9.53333 0.866667C9.63333 0.866667 10.0333 1.38667 10.0333 3.03333C10.0333 3.66889 9.9 4.39111 9.63333 5.2H9.5C9.23333 5.2 9 5.40222 9 5.63333C9 5.86444 9.23333 6.06667 9.5 6.06667H14C14.5 6.06667 14.9667 6.26889 14.9667 6.61555Z" fill="white"/>
<path d="M4 13.0001H1C0.433333 13.0001 0 12.6245 0 12.1334V6.06674C0 5.57563 0.433333 5.20007 1 5.20007H4C4.56667 5.20007 5 5.57563 5 6.06674V12.1334C5 12.6245 4.56667 13.0001 4 13.0001ZM1 6.06674V12.1334H4V6.06674H1Z" fill="white"/>
</svg>
