<svg width="17" height="17" viewBox="0 0 17 17" fill="none" xmlns="http://www.w3.org/2000/svg">
<path d="M8.50002 15.5833C4.5879 15.5833 1.41669 12.4121 1.41669 8.49999C1.41669 4.58787 4.5879 1.41666 8.50002 1.41666C12.4121 1.41666 15.5834 4.58787 15.5834 8.49999C15.5834 12.4121 12.4121 15.5833 8.50002 15.5833ZM8.50002 14.1667C10.0029 14.1667 11.4443 13.5696 12.507 12.5069C13.5697 11.4442 14.1667 10.0029 14.1667 8.49999C14.1667 6.9971 13.5697 5.55576 12.507 4.49305C11.4443 3.43035 10.0029 2.83332 8.50002 2.83332C6.99713 2.83332 5.55579 3.43035 4.49309 4.49305C3.43038 5.55576 2.83336 6.9971 2.83336 8.49999C2.83336 10.0029 3.43038 11.4442 4.49309 12.5069C5.55579 13.5696 6.99713 14.1667 8.50002 14.1667ZM7.79169 10.625H9.20836V12.0417H7.79169V10.625ZM9.20836 9.45978V9.91666H7.79169V8.85416C7.79169 8.6663 7.86632 8.48613 7.99916 8.35329C8.132 8.22045 8.31216 8.14582 8.50002 8.14582C8.70125 8.14581 8.89833 8.08866 9.06834 7.98102C9.23835 7.87337 9.3743 7.71967 9.46036 7.53778C9.54643 7.35589 9.57908 7.1533 9.55451 6.95359C9.52994 6.75387 9.44916 6.56524 9.32157 6.40964C9.19399 6.25403 9.02484 6.13786 8.83381 6.07464C8.64278 6.01141 8.43772 6.00373 8.24249 6.05249C8.04727 6.10125 7.8699 6.20445 7.73103 6.35007C7.59217 6.49569 7.49751 6.67775 7.45807 6.87507L6.06832 6.5967C6.15447 6.16609 6.35343 5.76609 6.64484 5.43757C6.93626 5.10906 7.30968 4.86382 7.72694 4.72692C8.1442 4.59003 8.59033 4.56639 9.01972 4.65843C9.44911 4.75046 9.84635 4.95486 10.1709 5.25074C10.4954 5.54662 10.7355 5.92336 10.8666 6.34245C10.9978 6.76154 11.0154 7.20795 10.9175 7.63604C10.8196 8.06413 10.6098 8.45855 10.3095 8.77898C10.0092 9.0994 9.6292 9.33434 9.20836 9.45978Z" fill="#FF719B"/>
</svg>
