<svg width="14" height="14" viewBox="0 0 14 14" fill="none" xmlns="http://www.w3.org/2000/svg">
<path d="M6.33334 0.366662V1.70799C4.98848 1.87912 3.75925 2.55591 2.89547 3.60081C2.03169 4.64571 1.5982 5.98031 1.68309 7.33335C1.76798 8.68639 2.3649 9.95634 3.35251 10.8851C4.34012 11.8138 5.64431 12.3316 7.00001 12.3333C8.29908 12.3333 9.5535 11.8592 10.5278 11C11.5022 10.1408 12.1295 8.95553 12.292 7.66666H13.634C13.2993 11.0353 10.4567 13.6667 7.00001 13.6667C3.31801 13.6667 0.333344 10.682 0.333344 6.99999C0.333344 3.54333 2.96468 0.700662 6.33334 0.366662ZM12.3333 2.60933L7.00001 7.94266L6.05734 6.99999L11.3907 1.66666H8.33334V0.333328H13.6667V5.66666H12.3333V2.60933Z" fill="white"/>
</svg>
