<svg width="24" height="21" viewBox="0 0 24 21" fill="none" xmlns="http://www.w3.org/2000/svg">
<g filter="url(#filter0_d)">
<path d="M20 6.61555C20 5.69111 19.1667 5.2 18 5.2H14.6333C14.8667 4.42 15 3.66889 15 3.03333C15 0.52 14.2 0 13.5 0C13.0333 0 12.7 0.0288889 12.2333 0.288889C12.1 0.346667 12.0333 0.462222 12 0.577778L11.5 2.91778C10.9667 4.16 9.6 5.22889 8.5 5.95111V12.1333C8.86667 12.1333 9.33333 12.3067 9.76667 12.5089C10.3 12.74 10.8667 12.9711 11.5 12.9711H16.2667C17.2667 12.9711 18 12.2778 18 11.6711C18 11.5556 18 11.44 17.9667 11.3533C18.6 11.1511 19 10.6889 19 10.1689C19 9.90889 18.9333 9.67777 18.8333 9.50444C19.2 9.27333 19.6 8.89778 19.6 8.43556C19.6 8.20445 19.4667 7.91556 19.2667 7.71334C19.7 7.42445 20 7.02 20 6.61555ZM18.9667 6.61555C18.9667 7.16444 18.3 7.22222 18.2 7.48222C18.1 7.77111 18.6 7.88667 18.6 8.40667C18.6 8.95556 17.8333 8.95555 17.7333 9.21555C17.6 9.53333 17.9667 9.64889 17.9667 10.1689C17.9667 10.1978 17.9667 10.2267 17.9667 10.2556C17.8667 10.6889 17.1 10.7178 16.9667 10.8911C16.8333 11.0933 17 11.2089 17 11.6711C17 11.9311 16.6667 12.1044 16.2667 12.1044H11.5C11.1333 12.1044 10.6667 11.9311 10.2333 11.7289C9.83333 11.5556 9.43333 11.3822 9 11.2956V6.70222C10.2333 5.89334 11.8333 4.65111 12.4667 3.14889C12.4667 3.12 12.4667 3.09111 12.5 3.09111L12.9667 0.924448C13.1333 0.86667 13.2667 0.866667 13.5333 0.866667C13.6333 0.866667 14.0333 1.38667 14.0333 3.03333C14.0333 3.66889 13.9 4.39111 13.6333 5.2H13.5C13.2333 5.2 13 5.40222 13 5.63333C13 5.86444 13.2333 6.06667 13.5 6.06667H18C18.5 6.06667 18.9667 6.26889 18.9667 6.61555Z" fill="white"/>
<path d="M8 13.0001H5C4.43333 13.0001 4 12.6245 4 12.1334V6.06674C4 5.57563 4.43333 5.20007 5 5.20007H8C8.56667 5.20007 9 5.57563 9 6.06674V12.1334C9 12.6245 8.56667 13.0001 8 13.0001ZM5 6.06674V12.1334H8V6.06674H5Z" fill="white"/>
</g>
<defs>
<filter id="filter0_d" x="0" y="0" width="24" height="21.0001" filterUnits="userSpaceOnUse" color-interpolation-filters="sRGB">
<feFlood flood-opacity="0" result="BackgroundImageFix"/>
<feColorMatrix in="SourceAlpha" type="matrix" values="0 0 0 0 0 0 0 0 0 0 0 0 0 0 0 0 0 0 127 0"/>
<feOffset dy="4"/>
<feGaussianBlur stdDeviation="2"/>
<feColorMatrix type="matrix" values="0 0 0 0 0 0 0 0 0 0 0 0 0 0 0 0 0 0 0.25 0"/>
<feBlend mode="normal" in2="BackgroundImageFix" result="effect1_dropShadow"/>
<feBlend mode="normal" in="SourceGraphic" in2="effect1_dropShadow" result="shape"/>
</filter>
</defs>
</svg>
